<svg width="30" height="30" viewBox="0 0 30 30" fill="none" xmlns="http://www.w3.org/2000/svg">
<g clip-path="url(#clip0_63_93)">
<path d="M18.7981 21.7847H21.1407V26.4697C21.1407 28.4072 19.5644 29.9833 17.6269 29.9833H3.51357C1.57631 29.9833 0 28.4072 0 26.4697V3.51357C0 1.57631 1.57631 0 3.51357 0H17.6269C19.5644 0 21.1407 1.57631 21.1407 3.51357V8.19855H18.7981V3.51357C18.7981 2.86789 18.2728 2.34238 17.6269 2.34238H3.51357C2.86789 2.34238 2.34238 2.86789 2.34238 3.51357V14.9916V26.4697C2.34238 27.1154 2.86789 27.6409 3.51357 27.6409H17.6269C18.2728 27.6409 18.7981 27.1154 18.7981 26.4697V21.7847Z" fill="white"/>
<path d="M16.3429 10L17.9457 11.5L15.3391 13.9395H22.6695H30V16.0607H15.3391L17.9457 18.5L16.3429 20L11 15.0001L16.3429 10Z" fill="white"/>
</g>
<defs>
<clipPath id="clip0_63_93">
<rect width="30" height="30" fill="white"/>
</clipPath>
</defs>
</svg>
