<svg width="24" height="24" viewBox="0 0 24 24" fill="none" xmlns="http://www.w3.org/2000/svg">
<path d="M9.37402 13.5996L10.9104 15.136L8.86194 17.1844L7.32557 15.6481L9.37402 13.5996Z" fill="#35C31E"/>
<path d="M8.8623 13.0874L9.88656 14.1117L7.83811 16.1601L6.81385 15.1359L8.8623 13.0874Z" fill="#35C31E"/>
<path d="M9.37389 16.6752L8.34952 15.6509L6.30078 16.6752L8.34952 17.6996C8.6324 17.9825 9.09101 17.9825 9.37389 17.6996C9.65677 17.4168 9.65677 16.9581 9.37389 16.6752Z" fill="white"/>
<path d="M8.34879 16.675C8.63167 16.3921 8.63167 15.9335 8.34879 15.6506L7.32442 14.6262C7.04154 14.3433 6.58293 14.3433 6.30005 14.6262C6.01717 14.9091 6.01717 15.3677 6.30005 15.6506V16.675H7.32442C7.6073 16.9578 8.06591 16.9578 8.34879 16.675Z" fill="white"/>
<path d="M11.4228 14.6264L10.3984 13.6021L9.37402 14.6264L10.3984 15.6508C10.6813 15.9337 11.1399 15.9337 11.4228 15.6508C11.7056 15.3679 11.7056 14.9093 11.4228 14.6264Z" fill="white"/>
<path d="M10.3976 14.6261C10.6805 14.3433 10.6805 13.8846 10.3976 13.6018L9.37325 12.5774C9.09037 12.2945 8.63176 12.2945 8.34888 12.5774C8.066 12.8603 8.066 13.3189 8.34888 13.6018L9.37325 14.6261C9.65613 14.909 10.1148 14.909 10.3976 14.6261Z" fill="white"/>
<path d="M8.3496 17.6992L7.32523 16.6748L0.636719 23.3633C1.48536 24.212 2.86123 24.212 3.70988 23.3633L8.3496 18.7236C8.63249 18.4407 8.63249 17.9821 8.3496 17.6992Z" fill="#35C31E"/>
<path d="M2.68527 22.3391L7.325 17.6994C7.60788 17.4165 7.60788 16.9579 7.325 16.675L6.30063 15.6506C6.01775 15.3678 5.55914 15.3678 5.27626 15.6506L0.636483 20.2903C-0.212161 21.139 -0.212161 22.5148 0.636483 23.3635C0.919364 23.6464 1.83663 23.1877 2.68527 22.3391Z" fill="#35C31E"/>
<path d="M16.0323 15.9356C20.4328 15.9356 24.0001 12.3683 24.0001 7.96781C24.0001 3.56731 20.4328 0 16.0323 0C11.6318 0 8.06445 3.56731 8.06445 7.96781C8.06445 12.3683 11.6318 15.9356 16.0323 15.9356Z" fill="#FFBB6E"/>
<path d="M16.0323 15.9356C20.4328 15.9356 24.0001 12.3683 24.0001 7.96781C24.0001 3.56731 20.4328 0 16.0323 0C11.6318 0 8.06445 3.56731 8.06445 7.96781C8.06445 12.3683 11.6318 15.9356 16.0323 15.9356Z" fill="#35C31E"/>
<path d="M16.0322 1.44873V14.487C19.6326 14.487 22.5513 11.5682 22.5513 7.96785C22.5513 4.36746 19.6326 1.44873 16.0322 1.44873Z" fill="#18233F"/>
<path d="M21.1022 7.96785C21.1022 4.36746 18.8321 1.44873 16.0318 1.44873C12.4314 1.44873 9.5127 4.36746 9.5127 7.96785C9.5127 11.5682 12.4314 14.487 16.0318 14.487C18.8321 14.487 21.1022 11.5682 21.1022 7.96785Z" fill="#18233F"/>
<path d="M18.9294 8.69234C19.3295 8.69234 19.6538 8.36804 19.6538 7.968C19.6538 7.56795 19.3295 7.24365 18.9294 7.24365C18.5294 7.24365 18.2051 7.56795 18.2051 7.968C18.2051 8.36804 18.5294 8.69234 18.9294 8.69234Z" fill="white"/>
<path d="M16.032 8.69234C16.432 8.69234 16.7563 8.36804 16.7563 7.968C16.7563 7.56795 16.432 7.24365 16.032 7.24365C15.6319 7.24365 15.3076 7.56795 15.3076 7.968C15.3076 8.36804 15.6319 8.69234 16.032 8.69234Z" fill="white"/>
<path d="M13.1345 8.69234C13.5345 8.69234 13.8588 8.36804 13.8588 7.968C13.8588 7.56795 13.5345 7.24365 13.1345 7.24365C12.7345 7.24365 12.4102 7.56795 12.4102 7.968C12.4102 8.36804 12.7345 8.69234 13.1345 8.69234Z" fill="white"/>
</svg>
